<svg width="197" height="78" viewBox="0 0 197 78" fill="none" xmlns="http://www.w3.org/2000/svg">
<path d="M34.6074 31.7324C33.4473 32.6348 32.3223 33.3145 31.2324 33.7715C30.1543 34.2168 28.9414 34.4395 27.5938 34.4395C26.3633 34.4395 25.2793 34.1992 24.3418 33.7188C23.416 33.2266 22.7012 32.5645 22.1973 31.7324C21.6934 30.9004 21.4414 29.998 21.4414 29.0254C21.4414 27.7129 21.8574 26.5938 22.6895 25.668C23.5215 24.7422 24.6641 24.1211 26.1172 23.8047C26.4219 23.7344 27.1777 23.5762 28.3848 23.3301C29.5918 23.084 30.623 22.8613 31.4785 22.6621C32.3457 22.4512 33.2832 22.1992 34.291 21.9062C34.2324 20.6406 33.9746 19.7148 33.5176 19.1289C33.0723 18.5312 32.1406 18.2324 30.7227 18.2324C29.5039 18.2324 28.584 18.4023 27.9629 18.7422C27.3535 19.082 26.8262 19.5918 26.3809 20.2715C25.9473 20.9512 25.6367 21.4023 25.4492 21.625C25.2734 21.8359 24.8867 21.9414 24.2891 21.9414C23.75 21.9414 23.2812 21.7715 22.8828 21.4316C22.4961 21.0801 22.3027 20.6348 22.3027 20.0957C22.3027 19.252 22.6016 18.4316 23.1992 17.6348C23.7969 16.8379 24.7285 16.1816 25.9941 15.666C27.2598 15.1504 28.8359 14.8926 30.7227 14.8926C32.832 14.8926 34.4902 15.1445 35.6973 15.6484C36.9043 16.1406 37.7539 16.9258 38.2461 18.0039C38.75 19.082 39.002 20.5117 39.002 22.293C39.002 23.418 38.9961 24.373 38.9844 25.1582C38.9844 25.9434 38.9785 26.8164 38.9668 27.7773C38.9668 28.6797 39.1133 29.623 39.4062 30.6074C39.7109 31.5801 39.8633 32.207 39.8633 32.4883C39.8633 32.9805 39.6289 33.4316 39.1602 33.8418C38.7031 34.2402 38.1816 34.4395 37.5957 34.4395C37.1035 34.4395 36.6172 34.2109 36.1367 33.7539C35.6562 33.2852 35.1465 32.6113 34.6074 31.7324ZM34.291 24.7891C33.5879 25.0469 32.5625 25.3223 31.2148 25.6152C29.8789 25.8965 28.9531 26.1074 28.4375 26.248C27.9219 26.377 27.4297 26.6406 26.9609 27.0391C26.4922 27.4258 26.2578 27.9707 26.2578 28.6738C26.2578 29.4004 26.5332 30.0215 27.084 30.5371C27.6348 31.041 28.3555 31.293 29.2461 31.293C30.1953 31.293 31.0684 31.0879 31.8652 30.6777C32.6738 30.2559 33.2656 29.7168 33.6406 29.0605C34.0742 28.334 34.291 27.1387 34.291 25.4746V24.7891ZM57.0371 31.6973V31.2227C56.3926 31.9609 55.7539 32.5645 55.1211 33.0332C54.5 33.4902 53.8203 33.8359 53.082 34.0703C52.3555 34.3164 51.5586 34.4395 50.6914 34.4395C49.543 34.4395 48.4766 34.1992 47.4922 33.7188C46.5195 33.2266 45.6758 32.5293 44.9609 31.627C44.2461 30.7246 43.7012 29.6641 43.3262 28.4453C42.9629 27.2266 42.7812 25.9082 42.7812 24.4902C42.7812 21.4902 43.5137 19.1523 44.9785 17.4766C46.4434 15.8008 48.3711 14.9629 50.7617 14.9629C52.1445 14.9629 53.3105 15.2031 54.2598 15.6836C55.209 16.1523 56.1348 16.8789 57.0371 17.8633V10.7793C57.0371 9.79492 57.2305 9.05078 57.6172 8.54688C58.0156 8.04297 58.5781 7.79102 59.3047 7.79102C60.0312 7.79102 60.5879 8.02539 60.9746 8.49414C61.373 8.95117 61.5723 9.63086 61.5723 10.5332V31.6973C61.5723 32.6113 61.3613 33.2969 60.9395 33.7539C60.5176 34.2109 59.9727 34.4395 59.3047 34.4395C58.6484 34.4395 58.1035 34.2051 57.6699 33.7363C57.248 33.2559 57.0371 32.5762 57.0371 31.6973ZM47.5977 24.6484C47.5977 25.9492 47.7969 27.0566 48.1953 27.9707C48.6055 28.8848 49.1621 29.5762 49.8652 30.0449C50.5684 30.502 51.3359 30.7305 52.168 30.7305C53.0117 30.7305 53.7793 30.5137 54.4707 30.0801C55.1738 29.6348 55.7305 28.9609 56.1406 28.0586C56.5625 27.1445 56.7734 26.0078 56.7734 24.6484C56.7734 23.3711 56.5625 22.2754 56.1406 21.3613C55.7305 20.4355 55.168 19.7324 54.4531 19.252C53.75 18.7598 52.9766 18.5137 52.1328 18.5137C51.2539 18.5137 50.4688 18.7656 49.7773 19.2695C49.0859 19.7617 48.5469 20.4766 48.1602 21.4141C47.7852 22.3398 47.5977 23.418 47.5977 24.6484ZM69.2891 17.916L73.1738 28.8145L77.3574 17.4414C77.6855 16.5273 78.0078 15.8828 78.3242 15.5078C78.6406 15.1211 79.1211 14.9277 79.7656 14.9277C80.375 14.9277 80.8906 15.1328 81.3125 15.543C81.7461 15.9531 81.9629 16.4277 81.9629 16.9668C81.9629 17.1777 81.9219 17.4238 81.8398 17.7051C81.7695 17.9863 81.6816 18.25 81.5762 18.4961C81.4824 18.7422 81.3711 19.0234 81.2422 19.3398L76.6367 30.7656C76.5078 31.0938 76.3379 31.5098 76.127 32.0137C75.9277 32.5176 75.6992 32.9512 75.4414 33.3145C75.1953 33.666 74.8848 33.9414 74.5098 34.1406C74.1465 34.3398 73.7012 34.4395 73.1738 34.4395C72.4941 34.4395 71.9492 34.2871 71.5391 33.9824C71.1406 33.666 70.8418 33.3262 70.6426 32.9629C70.4551 32.5879 70.1328 31.8555 69.6758 30.7656L65.1055 19.4629C65 19.1816 64.8887 18.9004 64.7715 18.6191C64.666 18.3379 64.5723 18.0508 64.4902 17.7578C64.4199 17.4648 64.3848 17.2129 64.3848 17.002C64.3848 16.6738 64.4844 16.3516 64.6836 16.0352C64.8828 15.707 65.1582 15.4434 65.5098 15.2441C65.8613 15.0332 66.2422 14.9277 66.6523 14.9277C67.4492 14.9277 67.9941 15.1562 68.2871 15.6133C68.5918 16.0703 68.9258 16.8379 69.2891 17.916ZM98.3105 25.8613H88.9238C88.9355 26.9512 89.1523 27.9121 89.5742 28.7441C90.0078 29.5762 90.5762 30.2031 91.2793 30.625C91.9941 31.0469 92.7793 31.2578 93.6348 31.2578C94.209 31.2578 94.7305 31.1934 95.1992 31.0645C95.6797 30.9238 96.1426 30.7129 96.5879 30.4316C97.0332 30.1387 97.4434 29.8281 97.8184 29.5C98.1934 29.1719 98.6797 28.7266 99.2773 28.1641C99.5234 27.9531 99.875 27.8477 100.332 27.8477C100.824 27.8477 101.223 27.9824 101.527 28.252C101.832 28.5215 101.984 28.9023 101.984 29.3945C101.984 29.8281 101.814 30.3379 101.475 30.9238C101.135 31.498 100.619 32.0547 99.9277 32.5938C99.248 33.1211 98.3867 33.5605 97.3438 33.9121C96.3125 34.2637 95.123 34.4395 93.7754 34.4395C90.6934 34.4395 88.2969 33.5605 86.5859 31.8027C84.875 30.0449 84.0195 27.6602 84.0195 24.6484C84.0195 23.2305 84.2305 21.918 84.6523 20.7109C85.0742 19.4922 85.6895 18.4492 86.498 17.582C87.3066 16.7148 88.3027 16.0527 89.4863 15.5957C90.6699 15.127 91.9824 14.8926 93.4238 14.8926C95.2988 14.8926 96.9043 15.291 98.2402 16.0879C99.5879 16.873 100.596 17.8926 101.264 19.1465C101.932 20.4004 102.266 21.6777 102.266 22.9785C102.266 24.1855 101.92 24.9707 101.229 25.334C100.537 25.6855 99.5645 25.8613 98.3105 25.8613ZM88.9238 23.1367H97.625C97.5078 21.4961 97.0625 20.2715 96.2891 19.4629C95.5273 18.6426 94.5195 18.2324 93.2656 18.2324C92.0703 18.2324 91.0859 18.6484 90.3125 19.4805C89.5508 20.3008 89.0879 21.5195 88.9238 23.1367ZM110.686 17.582V18.1621C111.529 17.0488 112.449 16.2344 113.445 15.7188C114.453 15.1914 115.607 14.9277 116.908 14.9277C118.174 14.9277 119.305 15.2031 120.301 15.7539C121.297 16.3047 122.041 17.084 122.533 18.0918C122.85 18.6777 123.055 19.3105 123.148 19.9902C123.242 20.6699 123.289 21.5371 123.289 22.5918V31.5215C123.289 32.4824 123.066 33.209 122.621 33.7012C122.188 34.1934 121.619 34.4395 120.916 34.4395C120.201 34.4395 119.621 34.1875 119.176 33.6836C118.73 33.1797 118.508 32.459 118.508 31.5215V23.5234C118.508 21.9414 118.285 20.7344 117.84 19.9023C117.406 19.0586 116.533 18.6367 115.221 18.6367C114.365 18.6367 113.586 18.8945 112.883 19.4102C112.18 19.9141 111.664 20.6113 111.336 21.502C111.102 22.2168 110.984 23.5527 110.984 25.5098V31.5215C110.984 32.4941 110.756 33.2266 110.299 33.7188C109.854 34.1992 109.273 34.4395 108.559 34.4395C107.867 34.4395 107.299 34.1875 106.854 33.6836C106.408 33.1797 106.186 32.459 106.186 31.5215V17.6523C106.186 16.7383 106.385 16.0586 106.783 15.6133C107.182 15.1562 107.727 14.9277 108.418 14.9277C108.84 14.9277 109.221 15.0273 109.561 15.2266C109.9 15.4258 110.17 15.7246 110.369 16.123C110.58 16.5215 110.686 17.0078 110.686 17.582ZM128.352 15.3496H128.879V12.4668C128.879 11.6934 128.896 11.0898 128.932 10.6562C128.979 10.2109 129.096 9.83008 129.283 9.51367C129.471 9.18555 129.74 8.92187 130.092 8.72266C130.443 8.51172 130.836 8.40625 131.27 8.40625C131.879 8.40625 132.43 8.63477 132.922 9.0918C133.25 9.39648 133.455 9.77148 133.537 10.2168C133.631 10.6504 133.678 11.2715 133.678 12.0801V15.3496H135.436C136.115 15.3496 136.631 15.5137 136.982 15.8418C137.346 16.1582 137.527 16.5684 137.527 17.0723C137.527 17.7168 137.27 18.168 136.754 18.4258C136.25 18.6836 135.523 18.8125 134.574 18.8125H133.678V27.6367C133.678 28.3867 133.701 28.9668 133.748 29.377C133.807 29.7754 133.947 30.1035 134.17 30.3613C134.404 30.6074 134.779 30.7305 135.295 30.7305C135.576 30.7305 135.957 30.6836 136.438 30.5898C136.918 30.4844 137.293 30.4316 137.562 30.4316C137.949 30.4316 138.295 30.5898 138.6 30.9062C138.916 31.2109 139.074 31.5918 139.074 32.0488C139.074 32.8223 138.652 33.4141 137.809 33.8242C136.965 34.2344 135.752 34.4395 134.17 34.4395C132.67 34.4395 131.533 34.1875 130.76 33.6836C129.986 33.1797 129.477 32.4824 129.23 31.5918C128.996 30.7012 128.879 29.5117 128.879 28.0234V18.8125H128.246C127.555 18.8125 127.027 18.6484 126.664 18.3203C126.301 17.9922 126.119 17.5762 126.119 17.0723C126.119 16.5684 126.307 16.1582 126.682 15.8418C127.068 15.5137 127.625 15.3496 128.352 15.3496ZM153.312 31.7324V31.1172C152.738 31.8438 152.135 32.4531 151.502 32.9453C150.869 33.4375 150.178 33.8008 149.428 34.0352C148.678 34.2812 147.822 34.4043 146.861 34.4043C145.701 34.4043 144.658 34.1641 143.732 33.6836C142.818 33.2031 142.109 32.541 141.605 31.6973C141.008 30.6777 140.709 29.2129 140.709 27.3027V17.793C140.709 16.832 140.926 16.1172 141.359 15.6484C141.793 15.168 142.367 14.9277 143.082 14.9277C143.809 14.9277 144.395 15.168 144.84 15.6484C145.285 16.1289 145.508 16.8438 145.508 17.793V25.4746C145.508 26.5879 145.602 27.5254 145.789 28.2871C145.977 29.0371 146.311 29.6289 146.791 30.0625C147.283 30.4844 147.945 30.6953 148.777 30.6953C149.586 30.6953 150.348 30.4551 151.062 29.9746C151.777 29.4941 152.299 28.8672 152.627 28.0938C152.896 27.4141 153.031 25.9258 153.031 23.6289V17.793C153.031 16.8438 153.254 16.1289 153.699 15.6484C154.145 15.168 154.725 14.9277 155.439 14.9277C156.154 14.9277 156.729 15.168 157.162 15.6484C157.596 16.1172 157.812 16.832 157.812 17.793V31.6973C157.812 32.6113 157.602 33.2969 157.18 33.7539C156.77 34.2109 156.236 34.4395 155.58 34.4395C154.924 34.4395 154.379 34.2051 153.945 33.7363C153.523 33.2559 153.312 32.5879 153.312 31.7324ZM167.375 27.5137V31.5215C167.375 32.4941 167.146 33.2266 166.689 33.7188C166.232 34.1992 165.652 34.4395 164.949 34.4395C164.258 34.4395 163.689 34.1934 163.244 33.7012C162.799 33.209 162.576 32.4824 162.576 31.5215V18.1621C162.576 16.0059 163.355 14.9277 164.914 14.9277C165.711 14.9277 166.285 15.1797 166.637 15.6836C166.988 16.1875 167.182 16.9316 167.217 17.916C167.791 16.9316 168.377 16.1875 168.975 15.6836C169.584 15.1797 170.393 14.9277 171.4 14.9277C172.408 14.9277 173.387 15.1797 174.336 15.6836C175.285 16.1875 175.76 16.8555 175.76 17.6875C175.76 18.2734 175.555 18.7598 175.145 19.1465C174.746 19.5215 174.312 19.709 173.844 19.709C173.668 19.709 173.24 19.6035 172.561 19.3926C171.893 19.1699 171.301 19.0586 170.785 19.0586C170.082 19.0586 169.508 19.2461 169.062 19.6211C168.617 19.9844 168.271 20.5293 168.025 21.2559C167.779 21.9824 167.609 22.8496 167.516 23.8574C167.422 24.8535 167.375 26.0723 167.375 27.5137ZM190.877 25.8613H181.49C181.502 26.9512 181.719 27.9121 182.141 28.7441C182.574 29.5762 183.143 30.2031 183.846 30.625C184.561 31.0469 185.346 31.2578 186.201 31.2578C186.775 31.2578 187.297 31.1934 187.766 31.0645C188.246 30.9238 188.709 30.7129 189.154 30.4316C189.6 30.1387 190.01 29.8281 190.385 29.5C190.76 29.1719 191.246 28.7266 191.844 28.1641C192.09 27.9531 192.441 27.8477 192.898 27.8477C193.391 27.8477 193.789 27.9824 194.094 28.252C194.398 28.5215 194.551 28.9023 194.551 29.3945C194.551 29.8281 194.381 30.3379 194.041 30.9238C193.701 31.498 193.186 32.0547 192.494 32.5938C191.814 33.1211 190.953 33.5605 189.91 33.9121C188.879 34.2637 187.689 34.4395 186.342 34.4395C183.26 34.4395 180.863 33.5605 179.152 31.8027C177.441 30.0449 176.586 27.6602 176.586 24.6484C176.586 23.2305 176.797 21.918 177.219 20.7109C177.641 19.4922 178.256 18.4492 179.064 17.582C179.873 16.7148 180.869 16.0527 182.053 15.5957C183.236 15.127 184.549 14.8926 185.99 14.8926C187.865 14.8926 189.471 15.291 190.807 16.0879C192.154 16.873 193.162 17.8926 193.83 19.1465C194.498 20.4004 194.832 21.6777 194.832 22.9785C194.832 24.1855 194.486 24.9707 193.795 25.334C193.104 25.6855 192.131 25.8613 190.877 25.8613ZM181.49 23.1367H190.191C190.074 21.4961 189.629 20.2715 188.855 19.4629C188.094 18.6426 187.086 18.2324 185.832 18.2324C184.637 18.2324 183.652 18.6484 182.879 19.4805C182.117 20.3008 181.654 21.5195 181.49 23.1367Z" fill="#009AFF"/>
<path d="M35.7422 51.3496H36.2695V48.4668C36.2695 47.6934 36.2871 47.0898 36.3223 46.6562C36.3691 46.2109 36.4863 45.8301 36.6738 45.5137C36.8613 45.1855 37.1309 44.9219 37.4824 44.7227C37.834 44.5117 38.2266 44.4062 38.6602 44.4062C39.2695 44.4062 39.8203 44.6348 40.3125 45.0918C40.6406 45.3965 40.8457 45.7715 40.9277 46.2168C41.0215 46.6504 41.0684 47.2715 41.0684 48.0801V51.3496H42.8262C43.5059 51.3496 44.0215 51.5137 44.373 51.8418C44.7363 52.1582 44.918 52.5684 44.918 53.0723C44.918 53.7168 44.6602 54.168 44.1445 54.4258C43.6406 54.6836 42.9141 54.8125 41.9648 54.8125H41.0684V63.6367C41.0684 64.3867 41.0918 64.9668 41.1387 65.377C41.1973 65.7754 41.3379 66.1035 41.5605 66.3613C41.7949 66.6074 42.1699 66.7305 42.6855 66.7305C42.9668 66.7305 43.3477 66.6836 43.8281 66.5898C44.3086 66.4844 44.6836 66.4316 44.9531 66.4316C45.3398 66.4316 45.6855 66.5898 45.9902 66.9062C46.3066 67.2109 46.4648 67.5918 46.4648 68.0488C46.4648 68.8223 46.043 69.4141 45.1992 69.8242C44.3555 70.2344 43.1426 70.4395 41.5605 70.4395C40.0605 70.4395 38.9238 70.1875 38.1504 69.6836C37.377 69.1797 36.8672 68.4824 36.6211 67.5918C36.3867 66.7012 36.2695 65.5117 36.2695 64.0234V54.8125H35.6367C34.9453 54.8125 34.418 54.6484 34.0547 54.3203C33.6914 53.9922 33.5098 53.5762 33.5098 53.0723C33.5098 52.5684 33.6973 52.1582 34.0723 51.8418C34.459 51.5137 35.0156 51.3496 35.7422 51.3496ZM53.0391 53.6523V67.5215C53.0391 68.4824 52.8105 69.209 52.3535 69.7012C51.8965 70.1934 51.3164 70.4395 50.6133 70.4395C49.9102 70.4395 49.3359 70.1875 48.8906 69.6836C48.457 69.1797 48.2402 68.459 48.2402 67.5215V53.793C48.2402 52.8438 48.457 52.1289 48.8906 51.6484C49.3359 51.168 49.9102 50.9277 50.6133 50.9277C51.3164 50.9277 51.8965 51.168 52.3535 51.6484C52.8105 52.1289 53.0391 52.7969 53.0391 53.6523ZM50.666 48.6953C49.998 48.6953 49.4238 48.4902 48.9434 48.0801C48.4746 47.6699 48.2402 47.0898 48.2402 46.3398C48.2402 45.6602 48.4805 45.1035 48.9609 44.6699C49.4531 44.2246 50.0215 44.002 50.666 44.002C51.2871 44.002 51.8379 44.2012 52.3184 44.5996C52.7988 44.998 53.0391 45.5781 53.0391 46.3398C53.0391 47.0781 52.8047 47.6582 52.3359 48.0801C51.8672 48.4902 51.3105 48.6953 50.666 48.6953ZM73.9746 61.0352V67.416C73.9746 68.4238 73.7461 69.1797 73.2891 69.6836C72.832 70.1875 72.2285 70.4395 71.4785 70.4395C70.752 70.4395 70.1602 70.1875 69.7031 69.6836C69.2578 69.1797 69.0352 68.4238 69.0352 67.416V59.7695C69.0352 58.5625 68.9941 57.625 68.9121 56.957C68.8301 56.2891 68.6074 55.7441 68.2441 55.3223C67.8809 54.8887 67.3066 54.6719 66.5215 54.6719C64.9512 54.6719 63.9141 55.2109 63.4102 56.2891C62.918 57.3672 62.6719 58.9141 62.6719 60.9297V67.416C62.6719 68.4121 62.4434 69.168 61.9863 69.6836C61.541 70.1875 60.9492 70.4395 60.2109 70.4395C59.4844 70.4395 58.8867 70.1875 58.418 69.6836C57.9609 69.168 57.7324 68.4121 57.7324 67.416V53.6875C57.7324 52.7852 57.9375 52.0996 58.3477 51.6309C58.7695 51.1621 59.3203 50.9277 60 50.9277C60.6562 50.9277 61.2012 51.1504 61.6348 51.5957C62.0801 52.0293 62.3027 52.6328 62.3027 53.4062V53.8633C63.1348 52.8672 64.0254 52.1348 64.9746 51.666C65.9238 51.1973 66.9785 50.9629 68.1387 50.9629C69.3457 50.9629 70.3828 51.2031 71.25 51.6836C72.1172 52.1641 72.832 52.8906 73.3945 53.8633C74.2031 52.8789 75.0703 52.1523 75.9961 51.6836C76.9219 51.2031 77.9473 50.9629 79.0723 50.9629C80.3848 50.9629 81.5156 51.2207 82.4648 51.7363C83.4141 52.252 84.123 52.9902 84.5918 53.9512C85.002 54.8184 85.207 56.1836 85.207 58.0469V67.416C85.207 68.4238 84.9785 69.1797 84.5215 69.6836C84.0645 70.1875 83.4609 70.4395 82.7109 70.4395C81.9844 70.4395 81.3867 70.1875 80.918 69.6836C80.4609 69.168 80.2324 68.4121 80.2324 67.416V59.3477C80.2324 58.3164 80.1855 57.4902 80.0918 56.8691C80.0098 56.248 79.7754 55.7266 79.3887 55.3047C79.002 54.8828 78.416 54.6719 77.6309 54.6719C76.998 54.6719 76.3945 54.8594 75.8203 55.2344C75.2578 55.6094 74.8184 56.1133 74.502 56.7461C74.1504 57.5547 73.9746 58.9844 73.9746 61.0352ZM103.26 61.8613H93.873C93.8848 62.9512 94.1016 63.9121 94.5234 64.7441C94.957 65.5762 95.5254 66.2031 96.2285 66.625C96.9434 67.0469 97.7285 67.2578 98.584 67.2578C99.1582 67.2578 99.6797 67.1934 100.148 67.0645C100.629 66.9238 101.092 66.7129 101.537 66.4316C101.982 66.1387 102.393 65.8281 102.768 65.5C103.143 65.1719 103.629 64.7266 104.227 64.1641C104.473 63.9531 104.824 63.8477 105.281 63.8477C105.773 63.8477 106.172 63.9824 106.477 64.252C106.781 64.5215 106.934 64.9023 106.934 65.3945C106.934 65.8281 106.764 66.3379 106.424 66.9238C106.084 67.498 105.568 68.0547 104.877 68.5938C104.197 69.1211 103.336 69.5605 102.293 69.9121C101.262 70.2637 100.072 70.4395 98.7246 70.4395C95.6426 70.4395 93.2461 69.5605 91.5352 67.8027C89.8242 66.0449 88.9688 63.6602 88.9688 60.6484C88.9688 59.2305 89.1797 57.918 89.6016 56.7109C90.0234 55.4922 90.6387 54.4492 91.4473 53.582C92.2559 52.7148 93.252 52.0527 94.4355 51.5957C95.6191 51.127 96.9316 50.8926 98.373 50.8926C100.248 50.8926 101.854 51.291 103.189 52.0879C104.537 52.873 105.545 53.8926 106.213 55.1465C106.881 56.4004 107.215 57.6777 107.215 58.9785C107.215 60.1855 106.869 60.9707 106.178 61.334C105.486 61.6855 104.514 61.8613 103.26 61.8613ZM93.873 59.1367H102.574C102.457 57.4961 102.012 56.2715 101.238 55.4629C100.477 54.6426 99.4688 54.2324 98.2148 54.2324C97.0195 54.2324 96.0352 54.6484 95.2617 55.4805C94.5 56.3008 94.0371 57.5195 93.873 59.1367Z" fill="white"/>
<path d="M3.55792 30.6118C1.338 32.9726 -0.0524735 36.4116 0.0015176 39.6463C0.114264 46.406 3.17205 48.9648 8.06201 58.2682C9.82346 62.3621 11.6619 66.6939 13.4104 73.8684C13.6534 74.9266 13.8904 75.9097 14 75.9948C14.1096 76.0801 14.3466 75.0936 14.5896 74.0353C16.3381 66.8608 18.1765 62.5324 19.938 58.4386C24.828 49.1352 27.8857 46.5763 27.9985 39.8166C28.0525 36.5819 26.6586 33.1394 24.4386 30.7786C21.9027 28.0818 18.0778 26.086 14 26.0025C9.92217 25.919 6.09381 27.915 3.55792 30.6118Z" fill="#009AFF"/>
</svg>
