<svg width="28" height="28" viewBox="0 0 28 28" fill="none" xmlns="http://www.w3.org/2000/svg">
<path d="M24.1818 0H3.81818C1.70946 0 0 1.70946 0 3.81818V24.1818C0 26.2905 1.70946 28 3.81818 28H24.1818C26.2905 28 28 26.2905 28 24.1818V3.81818C28 1.70946 26.2905 0 24.1818 0Z" fill="#C2CFEF"/>
<path d="M13.9999 10.9434C12.3132 10.9434 10.9432 12.3134 10.9432 14C10.9432 15.6867 12.3132 17.06 13.9999 17.06C15.6866 17.06 17.0599 15.6867 17.0599 14C17.0599 12.3134 15.6866 10.9434 13.9999 10.9434Z" fill="#2C3959"/>
<path d="M18.6133 5.66602H9.38663C7.33663 5.66602 5.66663 7.33602 5.66663 9.38602V18.6127C5.66663 20.666 7.33663 22.3327 9.38663 22.3327H18.6133C20.6666 22.3327 22.3333 20.666 22.3333 18.6127V9.38602C22.3333 7.33602 20.6666 5.66602 18.6133 5.66602ZM14 19.3994C11.0233 19.3994 8.59996 16.976 8.59996 13.9993C8.59996 11.0227 11.0233 8.60268 14 8.60268C16.9766 8.60268 19.4 11.0227 19.4 13.9993C19.4 16.976 16.9766 19.3994 14 19.3994ZM19.5133 9.58268C18.8833 9.58268 18.37 9.07268 18.37 8.44268C18.37 7.81268 18.8833 7.29935 19.5133 7.29935C20.1433 7.29935 20.6566 7.81268 20.6566 8.44268C20.6566 9.07268 20.1433 9.58268 19.5133 9.58268Z" fill="#2C3959"/>
</svg>
