<svg width="28" height="28" viewBox="0 0 28 28" fill="none" xmlns="http://www.w3.org/2000/svg">
<g clip-path="url(#clip0_111_397)">
<path d="M24.1818 0H3.81818C1.70946 0 0 1.70946 0 3.81818V24.1818C0 26.2905 1.70946 28 3.81818 28H24.1818C26.2905 28 28 26.2905 28 24.1818V3.81818C28 1.70946 26.2905 0 24.1818 0Z" fill="#C2CFEF"/>
<path d="M21.6268 7.23819L21.3372 7.34319L5.62224 13.0052C5.51088 13.0397 5.41409 13.1101 5.34704 13.2054C5.28 13.3008 5.24648 13.4157 5.25176 13.5322C5.25704 13.6486 5.3008 13.76 5.3762 13.8489C5.45159 13.9378 5.55436 13.9992 5.66838 14.0234L9.73633 15.1371L10.4952 17.3643L11.2541 19.5916C11.2977 19.7008 11.3672 19.7977 11.4568 19.8739C11.5463 19.9501 11.6531 20.0032 11.7679 20.0288C11.8826 20.0543 12.0019 20.0515 12.1153 20.0205C12.2287 19.9895 12.3328 19.9313 12.4186 19.8509L14.5202 17.8655L18.647 20.6639C19.1513 21.0075 19.8704 20.753 19.9993 20.1866L22.7325 8.11001C22.8661 7.51183 22.2361 7.02024 21.6268 7.23819ZM19.6207 9.91887L12.5204 15.7225L12.1863 15.9961C12.1129 16.0543 12.065 16.1388 12.0527 16.2316L11.9779 16.8489L11.7727 18.583C11.7744 18.6041 11.7676 18.625 11.7539 18.6411C11.7402 18.6572 11.7206 18.6672 11.6995 18.6689C11.6784 18.6706 11.6575 18.6638 11.6414 18.6501C11.6253 18.6363 11.6153 18.6168 11.6136 18.5957L11.0361 16.8632L10.4395 15.0893C10.4143 15.0096 10.4176 14.9236 10.449 14.846C10.4804 14.7685 10.5378 14.7043 10.6113 14.6646L17.9995 10.4296L19.39 9.6341C19.592 9.51637 19.7988 9.77251 19.6207 9.91887Z" fill="#2C3959"/>
</g>
<defs>
<clipPath id="clip0_111_397">
<rect width="28" height="28" fill="white"/>
</clipPath>
</defs>
</svg>
