<svg width="28" height="28" viewBox="0 0 28 28" fill="none" xmlns="http://www.w3.org/2000/svg">
<g clip-path="url(#clip0_111_402)">
<path d="M25.402 0H2.59795C1.90893 0 1.24813 0.273712 0.760923 0.760923C0.273712 1.24813 0 1.90893 0 2.59795L0 25.402C0 26.0911 0.273712 26.7519 0.760923 27.2391C1.24813 27.7263 1.90893 28 2.59795 28H25.402C26.0911 28 26.7519 27.7263 27.2391 27.2391C27.7263 26.7519 28 26.0911 28 25.402V2.59795C28 1.90893 27.7263 1.24813 27.2391 0.760923C26.7519 0.273712 26.0911 0 25.402 0ZM22.75 10.2598C22.6752 11.9095 21.498 14.1766 19.3009 17.0355C17.1595 19.8116 15.4509 21.1782 14 21.4773C13.8073 21.5161 13.6112 21.5359 13.4145 21.5361C11.908 21.5361 10.4411 17.317 9.47386 13.7757C8.96795 11.9525 8.54159 11.1873 8.05159 11.2111C7.59977 11.2255 7 11.6502 6.36364 12.1005L6.34455 12.1164C6.24654 12.1853 6.12575 12.2138 6.00725 12.1961C5.88876 12.1783 5.78166 12.1156 5.70818 12.0209L5.34545 11.5532C5.27542 11.458 5.24317 11.3403 5.25492 11.2228C5.26668 11.1052 5.32161 10.9962 5.40909 10.9168L5.71295 10.6591C7.66818 8.95523 10.0498 7 11.1173 7C12.5189 7 12.7352 7.76682 13.1664 9.2925C13.187 9.36568 13.5689 11.0536 14 12.732C14.4311 14.4105 14.9164 16.1 15.1248 16.1C15.2505 16.1 15.6864 15.5432 16.4739 14.307C17.1214 13.2889 17.6432 12.3295 17.7466 11.97C17.8659 11.5452 17.8452 11.2191 17.6798 11.0027C17.465 10.7243 17.0339 10.6591 16.7045 10.6591C16.4533 10.6604 16.2034 10.6957 15.9616 10.7641C15.8984 10.7813 15.8316 10.7808 15.7687 10.7626C15.7058 10.7444 15.6491 10.7092 15.6048 10.6609C15.5606 10.6125 15.5306 10.5529 15.518 10.4886C15.5054 10.4243 15.5108 10.3578 15.5336 10.2964C16.4086 7.89886 17.9773 6.71682 20.1966 6.79636C20.9825 6.82023 21.595 7.06205 22.0182 7.52023C22.5575 8.09136 22.7993 9.01409 22.75 10.2598Z" fill="#C2CFEF"/>
</g>
<defs>
<clipPath id="clip0_111_402">
<rect width="28" height="28" fill="white"/>
</clipPath>
</defs>
</svg>
