<svg width="28" height="28" viewBox="0 0 28 28" fill="none" xmlns="http://www.w3.org/2000/svg">
<g clip-path="url(#clip0_111_406)">
<g clip-path="url(#clip1_111_406)">
<path d="M24.1818 0H3.81818C1.70946 0 0 1.70946 0 3.81818V24.1818C0 26.2905 1.70946 28 3.81818 28H24.1818C26.2905 28 28 26.2905 28 24.1818V3.81818C28 1.70946 26.2905 0 24.1818 0Z" fill="#C2CFEF"/>
<path d="M22.0691 19.0015C21.6618 19.0588 19.67 19.0015 19.5666 19.0015C19.0517 19.0081 18.555 18.8114 18.1841 18.4542C17.7641 18.0501 17.3886 17.6047 16.9782 17.1815C16.8568 17.053 16.7254 16.9344 16.5852 16.8267C16.2575 16.5738 15.9329 16.631 15.7786 17.0176C15.6581 17.4354 15.5739 17.8628 15.5273 18.2951C15.5002 18.6865 15.252 18.9315 14.8129 18.9585C14.5409 18.9729 14.2688 18.9776 14 18.9713C13.0201 18.965 12.0557 18.7268 11.1857 18.276C10.2443 17.7515 9.42409 17.0343 8.77862 16.1713C7.71749 14.8158 6.86953 13.3267 6.11226 11.7915C6.07248 11.7151 5.29612 10.0638 5.27703 9.98582C5.20703 9.72491 5.27703 9.47513 5.4918 9.38923C5.62862 9.33673 8.1868 9.38923 8.22976 9.38923C8.41994 9.38758 8.60571 9.44651 8.76017 9.55749C8.91462 9.66846 9.02974 9.82573 9.08885 10.0065C9.56175 11.2174 10.2092 12.3526 11.0107 13.376C11.1228 13.5129 11.2541 13.6329 11.4004 13.7324C11.6089 13.874 11.8061 13.8247 11.892 13.5845C11.9938 13.2511 12.0537 12.9064 12.0702 12.5583C12.0845 11.8679 12.0702 11.4129 12.032 10.724C12.0066 10.2817 11.8507 9.89354 11.1984 9.76945C10.9979 9.73445 10.9804 9.569 11.1093 9.40354C11.3782 9.05991 11.7457 9.00582 12.1577 8.98513C12.7718 8.95013 13.3859 8.974 14 8.98513H14.1336C14.4009 8.98416 14.6675 9.01136 14.9291 9.06627C15.0837 9.09754 15.2241 9.17794 15.3293 9.29548C15.4345 9.41302 15.4989 9.56141 15.5129 9.71854C15.5444 9.89276 15.5577 10.0698 15.5527 10.2467C15.5368 11.0008 15.5002 11.7533 15.4923 12.5074C15.4849 12.806 15.5122 13.1044 15.5734 13.3967C15.6609 13.7976 15.9361 13.8979 16.2098 13.6083C16.5641 13.234 16.8891 12.833 17.1818 12.4088C17.6995 11.6357 18.1265 10.8056 18.4545 9.93491C18.6327 9.48786 18.7727 9.38923 19.25 9.38923H21.9641C22.1255 9.38639 22.2863 9.40785 22.4414 9.45286C22.4962 9.46728 22.5475 9.49287 22.592 9.52803C22.6365 9.56319 22.6733 9.60716 22.7 9.65719C22.7268 9.70722 22.7429 9.76223 22.7474 9.81878C22.7519 9.87533 22.7446 9.93219 22.7261 9.98582C22.5925 10.5808 22.2711 11.0883 21.9307 11.5767C21.3786 12.3595 20.7963 13.1215 20.2316 13.8915C20.1602 13.9936 20.0948 14.0999 20.0359 14.2097C19.8227 14.5931 19.8386 14.8079 20.1473 15.1276C20.6404 15.6335 21.167 16.1092 21.6427 16.631C21.992 17.0104 22.3071 17.4198 22.5845 17.8545C22.9329 18.3938 22.7182 18.9092 22.0691 19.0015Z" fill="#2C3959"/>
</g>
</g>
<defs>
<clipPath id="clip0_111_406">
<rect width="28" height="28" fill="white"/>
</clipPath>
<clipPath id="clip1_111_406">
<rect width="28" height="28" fill="white"/>
</clipPath>
</defs>
</svg>
