<svg width="50" height="50" viewBox="0 0 50 50" fill="none" xmlns="http://www.w3.org/2000/svg">
<rect width="50" height="50" rx="6" fill="#EBEBEB"/>
<mask id="mask0_132_346" style="mask-type:alpha" maskUnits="userSpaceOnUse" x="13" y="13" width="24" height="24">
<rect x="13" y="13" width="24" height="24" fill="#D9D9D9"/>
</mask>
<g mask="url(#mask0_132_346)">
<path d="M24.4 22H32.4C31.95 20.85 31.2625 19.8625 30.3375 19.0375C29.4125 18.2125 28.35 17.6333 27.15 17.3L24.4 22ZM22.1 24L26.1 17.1C25.9167 17.0667 25.7333 17.0417 25.55 17.025C25.3667 17.0083 25.1833 17 25 17C23.9 17 22.875 17.2083 21.925 17.625C20.975 18.0417 20.1333 18.6 19.4 19.3L22.1 24ZM17.25 27H22.7L18.7 20.1C18.1667 20.7833 17.75 21.5375 17.45 22.3625C17.15 23.1875 17 24.0667 17 25C17 25.35 17.0208 25.6875 17.0625 26.0125C17.1042 26.3375 17.1667 26.6667 17.25 27ZM22.85 32.7L25.55 28H17.6C18.05 29.15 18.7375 30.1375 19.6625 30.9625C20.5875 31.7875 21.65 32.3667 22.85 32.7ZM25 33C26.1 33 27.125 32.7917 28.075 32.375C29.025 31.9583 29.8667 31.4 30.6 30.7L27.9 26L23.9 32.9C24.0833 32.9333 24.2625 32.9583 24.4375 32.975C24.6125 32.9917 24.8 33 25 33ZM31.3 29.9C31.8333 29.2167 32.25 28.4625 32.55 27.6375C32.85 26.8125 33 25.9333 33 25C33 24.65 32.9792 24.3125 32.9375 23.9875C32.8958 23.6625 32.8333 23.3333 32.75 23H27.3L31.3 29.9ZM25 35C23.6333 35 22.3417 34.7375 21.125 34.2125C19.9083 33.6875 18.8458 32.9708 17.9375 32.0625C17.0292 31.1542 16.3125 30.0917 15.7875 28.875C15.2625 27.6583 15 26.3667 15 25C15 23.6167 15.2625 22.3208 15.7875 21.1125C16.3125 19.9042 17.0292 18.8458 17.9375 17.9375C18.8458 17.0292 19.9083 16.3125 21.125 15.7875C22.3417 15.2625 23.6333 15 25 15C26.3833 15 27.6792 15.2625 28.8875 15.7875C30.0958 16.3125 31.1542 17.0292 32.0625 17.9375C32.9708 18.8458 33.6875 19.9042 34.2125 21.1125C34.7375 22.3208 35 23.6167 35 25C35 26.3667 34.7375 27.6583 34.2125 28.875C33.6875 30.0917 32.9708 31.1542 32.0625 32.0625C31.1542 32.9708 30.0958 33.6875 28.8875 34.2125C27.6792 34.7375 26.3833 35 25 35Z" fill="#9D9D9D"/>
</g>
</svg>
